# xmcd
#
# Track frame offsets:
#	150
#	5753
#	11088
#	25635
#	41425
#	59425
#	72905
#	86695
#	98305
#	112870
#	124413
#	138023
#
# Disc length: 2079 seconds
#
# Revision: 0
# Processed by: cddbd v1.4PL0 Copyright (c) Steve Scherf et al.
# Submitted via: audiograbber 1.81.03
#
DISCID=8f081d0c
DTITLE=Derek Cornett - Electric Blues Guitar
DYEAR=1994
DGENRE=
TTITLE0=Intro
TTITLE1=Intro cont'd - Tuning
TTITLE2=Le Swing
TTITLE3=Stone Cold Shuffle
TTITLE4=Late Night
TTITLE5=Swamp Music
TTITLE6=Funky Little Shack
TTITLE7=Push-Pull
TTITLE8=The Blues Fell This Morning
TTITLE9=Short Fuse
TTITLE10=Bordertown
TTITLE11=Blues Face
EXTD=
EXTT0=
EXTT1=
EXTT2=
EXTT3=
EXTT4=
EXTT5=
EXTT6=
EXTT7=
EXTT8=
EXTT9=
EXTT10=
EXTT11=
PLAYORDER=
